<svg id="Layer_1" data-name="Layer 1" xmlns="http://www.w3.org/2000/svg" xmlns:xlink="http://www.w3.org/1999/xlink" viewBox="0 0 400.7 117.45"><defs><style>.cls-1{fill:url(#linear-gradient);}.cls-2{fill:url(#linear-gradient-2);}.cls-3{fill:url(#linear-gradient-3);}.cls-4{fill:url(#linear-gradient-4);}.cls-5{fill:url(#linear-gradient-5);}.cls-6{fill:url(#linear-gradient-6);}.cls-7{fill:#e81c3d;}.cls-8{fill:#ffcc04;}.cls-9{fill:#f48220;}</style><linearGradient id="linear-gradient" x1="-17972.8" y1="60.64" x2="-17998.03" y2="60.64" gradientTransform="matrix(-1, 0, 0, 1, -17946.73, 0)" gradientUnits="userSpaceOnUse"><stop offset="0" stop-color="#600f40"/><stop offset="0.25" stop-color="#9c1c26"/><stop offset="0.75" stop-color="#e46626"/><stop offset="1" stop-color="#f68a25"/></linearGradient><linearGradient id="linear-gradient-2" x1="-17980.43" y1="65.43" x2="-17999.64" y2="65.43" xlink:href="#linear-gradient"/><linearGradient id="linear-gradient-3" x1="-17991.49" y1="66.27" x2="-18001.75" y2="66.27" xlink:href="#linear-gradient"/><linearGradient id="linear-gradient-4" x1="-17991.59" y1="54.73" x2="-18016.81" y2="54.73" gradientTransform="matrix(-1, 0, 0, 1, -17946.73, 0)" gradientUnits="userSpaceOnUse"><stop offset="0.01" stop-color="#f68a25"/><stop offset="0.25" stop-color="#e46626"/><stop offset="0.75" stop-color="#9c1c26"/><stop offset="1" stop-color="#600f40"/></linearGradient><linearGradient id="linear-gradient-5" x1="-17989.97" y1="49.94" x2="-18009.18" y2="49.94" xlink:href="#linear-gradient-4"/><linearGradient id="linear-gradient-6" x1="-17987.86" y1="49.1" x2="-17998.12" y2="49.1" xlink:href="#linear-gradient-4"/></defs><path class="cls-1" d="M51.29,58.86c-.55.4-.65,1.14-1,1.69-2.25,3.07-6.2,2.09-9.31,1.2-4.64-1.33-9.06-3.52-13.71-4.83-.31,0-1,4.5-1.15,5.14,4.74.27,9.34,1.64,14,2.11S50.14,64.69,51.29,58.86Z"/><path class="cls-2" d="M52.35,57.62c-.31,0-.17.4-.15.6.44,4.57-2.83,5.82-6.55,7.12-3.91,1.35-8.07,2.08-11.92,3.63-.28.4,1.64,3.55,1.69,4.27,3.46-2,7.21-3.52,10.7-5.47C50,65.61,54.5,62.84,52.35,57.62Z"/><path class="cls-3" d="M48.47,76.25c1.34-3.66,3.62-6.93,5.15-10.52,1.16-2.71,2.44-6.2.06-8.65-.24-.25-1.07-1-1.32-.79,3.14,3,1.06,6.15-.92,9-.83,1.2-6.68,8.35-6.68,8.91,0,.33,1.63,1.17,2,1.36S48.24,76.42,48.47,76.25Z"/><path class="cls-4" d="M44.85,56.51c.56-.4.66-1.14,1.06-1.69,2.25-3.07,6.2-2.09,9.31-1.2,4.64,1.33,9,3.52,13.71,4.83.31,0,1-4.5,1.15-5.14-4.74-.26-9.34-1.64-14-2.1S46,50.69,44.85,56.51Z"/><path class="cls-5" d="M43.8,57.75c.31,0,.17-.4.15-.6-.44-4.56,2.83-5.82,6.55-7.11,3.91-1.36,8.07-2.09,11.92-3.64.28-.4-1.64-3.55-1.7-4.27-3.45,2-7.2,3.53-10.69,5.47C46.15,49.76,41.65,52.53,43.8,57.75Z"/><path class="cls-6" d="M47.68,39.12c-1.35,3.66-3.62,6.94-5.15,10.52-1.16,2.71-2.45,6.2-.07,8.65.25.26,1.08,1,1.33.79-3.14-3-1.06-6.14.92-9,.83-1.2,6.67-8.35,6.68-8.91,0-.32-1.63-1.16-2-1.36S47.91,39,47.68,39.12Z"/><path class="cls-7" d="M48.07,88.75a31.23,31.23,0,0,1-22-53.27A31.14,31.14,0,0,1,70.05,79.61,30.78,30.78,0,0,1,48.07,88.75Zm0-60.54A29.34,29.34,0,1,0,77.28,57.55,29.31,29.31,0,0,0,48.07,28.21Z"/><path class="cls-8" d="M48.07,90.63A32.72,32.72,0,0,1,35.25,88,33.05,33.05,0,0,1,15.14,57.55H17a31.08,31.08,0,1,0,62.15,0H81A32.94,32.94,0,0,1,48.07,90.63Z"/><path class="cls-9" d="M81,57.55h-.68a32.08,32.08,0,0,0-32.08-32.2A32.17,32.17,0,0,0,18.69,45a32.23,32.23,0,0,0-2.87,12.52h-.68a32.82,32.82,0,0,1,2.92-12.79A32.91,32.91,0,0,1,35.5,27.25a32.66,32.66,0,0,1,35.92,7A32.85,32.85,0,0,1,81,57.55Z"/><path class="cls-7" d="M102.39,66.59a4.23,4.23,0,0,0,4.35,3.9,4.33,4.33,0,0,0,4.41-4.35V33.07h9.73V66.14a14.12,14.12,0,0,1-28,2.79Z"/><path class="cls-7" d="M146.3,54.6l22.89,24.19H155.64l-16-17v17H130V33.07h9.73V47.53l13.88-14.46h13.36Z"/><path class="cls-7" d="M192.08,33.07H206l11.87,32.81,12-32.81h13.81V78.79h-9.73V50.25L223.54,78.79H212.19L201.81,50.45V78.79h-9.73Z"/><path class="cls-7" d="M264.72,33.07h11.35l16,45.72H281.64l-3.37-9.73H262.45l-3.38,9.73H248.76Zm1.16,26.26h9l-4.48-13Z"/><path class="cls-7" d="M297.08,33.07h9.72V78.79h-9.72Z"/><path class="cls-7" d="M326,43.64V78.79h-9.73V33.07H331L349.35,67V33.07h9.73V78.79h-14Z"/><path class="cls-7" d="M369.13,33.07h9.72V78.79h-9.72Z"/></svg>