<?xml version="1.0" standalone="no"?>
<svg xmlns="http://www.w3.org/2000/svg" version="1.1" xmlns:xlink="http://www.w3.org/1999/xlink" width="512" height="512" x="0" y="0" viewBox="0 0 64 64" style="enable-background:new 0 0 512 512" xml:space="preserve" class=""><g><path d="M57.029 49.26a5.113 5.113 0 0 0-2.003-.41H8.96c-6.572.176-6.655 9.791 0 10.013h46.066a5.022 5.022 0 0 0 2.003-9.603zm-44.334 5.598a1.002 1.002 0 0 1-.01-2.003 1.002 1.002 0 0 1 .01 2.003zm7.731 0a1.001 1.001 0 0 1 0-2.003 1.001 1.001 0 0 1 0 2.003zm7.721 0a1.002 1.002 0 0 1-.01-2.003 1.002 1.002 0 0 1 .01 2.003zm7.732 0a1.001 1.001 0 0 1 0-2.003 1.001 1.001 0 0 1 0 2.003zm7.72 0a1.002 1.002 0 0 1-.01-2.003 1.002 1.002 0 0 1 .01 2.003zm7.732 0a1.002 1.002 0 0 1-.01-2.003 1.002 1.002 0 0 1 .01 2.003zM43.009 37.833v9.013h12.017a7.123 7.123 0 0 1 2.003.29v-9.303a.998.998 0 0 0-1.002-1.001H44.01a.998.998 0 0 0-1.001 1.001zM20.977 46.846v-9.013a.998.998 0 0 0-1.001-1.001H7.959a.998.998 0 0 0-1.002 1.001v9.304a7.176 7.176 0 0 1 2.003-.29zM38.002 36.832H25.984a.998.998 0 0 0-1.001 1.001v9.013h14.02v-9.013a.998.998 0 0 0-1.001-1.001zM18.474 22.772c1.158-.09 2.341.12 2.824 1.312.51 1.182-.187 2.183-1.072 2.924a1.01 1.01 0 0 0 0 1.422l2.994 2.994a1.01 1.01 0 0 0 1.422 0l.601-.61a2.143 2.143 0 0 1 3.635 1.502v.86a.998.998 0 0 0 1.002 1.002h4.226a.998.998 0 0 0 1.001-1.001v-.862a2.143 2.143 0 0 1 3.636-1.502l.6.611a1.01 1.01 0 0 0 1.422 0l2.995-2.994a1.01 1.01 0 0 0 0-1.422l-.611-.601a2.143 2.143 0 0 1 1.502-3.635h.861a1.004 1.004 0 0 0 1.002-1.002v-4.226a1.004 1.004 0 0 0-1.002-1.001c-2.894.388-4.068-2.492-1.752-4.236a1.027 1.027 0 0 0 0-1.422L40.766 7.89a1.01 1.01 0 0 0-1.422 0c-1.764 2.332-4.625 1.116-4.236-1.753a.998.998 0 0 0-1.002-1.001H29.88a.998.998 0 0 0-1.001 1.001c.09 1.159-.12 2.342-1.312 2.824-1.182.51-2.184-.187-2.924-1.071a1.01 1.01 0 0 0-1.423 0l-2.994 2.994c-.712.775.006 1.493.611 2.023a2.143 2.143 0 0 1-1.502 3.635h-.861a1.004 1.004 0 0 0-1.002 1.001v4.226a1.004 1.004 0 0 0 1.002 1.002zm13.52-9.123c7.94.25 7.938 11.768-.001 12.017-7.941-.25-7.94-11.768 0-12.017z" fill="#ffffff" opacity="1" data-original="#000000"/></g></svg>