<?xml version="1.0" standalone="no"?>
<svg xmlns="http://www.w3.org/2000/svg" version="1.1" xmlns:xlink="http://www.w3.org/1999/xlink" width="512" height="512" x="0" y="0" viewBox="0 0 512 512" style="enable-background:new 0 0 512 512" xml:space="preserve"><g><path d="M507.458 100.029a15 15 0 0 0-25.101-6.745l-53.59 53.59-53.033-10.606-10.606-53.033 53.59-53.59a14.999 14.999 0 0 0-6.746-25.101c-46.482-12.386-96.413.979-130.303 34.87-37.269 37.268-49.194 93.086-31.286 141.988L23.72 386.478C8.937 399.853.521 418.194.023 438.123c-.498 19.93 6.991 38.669 21.088 52.766C34.768 504.545 52.78 512 72.011 512c.62 0 1.243-.008 1.866-.023 19.929-.498 38.271-8.914 51.646-23.697L330.59 261.626a134.52 134.52 0 0 0 46.289 8.189c35.161 0 69.888-13.661 95.709-39.483 33.891-33.891 47.252-83.821 34.87-130.303zM74.144 452.855c-8.284 0-15-6.716-15-15s6.716-15 15-15 15 6.716 15 15-6.715 15-15 15z" fill="#ffffff" opacity="1" data-original="#000000"/></g></svg>