<?xml version="1.0" standalone="no"?>
<svg xmlns="http://www.w3.org/2000/svg" version="1.1" xmlns:xlink="http://www.w3.org/1999/xlink" width="512" height="512" x="0" y="0" viewBox="0 0 24 24" style="enable-background:new 0 0 512 512" xml:space="preserve" class=""><g><path d="M23.676 7.882 12.426.132a.752.752 0 0 0-.851 0L.325 7.882A.749.749 0 0 0 0 8.5V23a1 1 0 0 0 1 1h2V12a1 1 0 0 1 1-1h16a1 1 0 0 1 1 1v12h2a1 1 0 0 0 1-1V8.5a.75.75 0 0 0-.324-.618z" fill="#ffffff" opacity="1" data-original="#000000"/><path d="M9.25 19v.75a.75.75 0 0 1-1.5 0V19H6a.5.5 0 0 0-.5.5v4a.5.5 0 0 0 .5.5h5a.5.5 0 0 0 .5-.5v-4a.5.5 0 0 0-.5-.5zM16.25 19v.75a.75.75 0 0 1-1.5 0V19H13a.5.5 0 0 0-.5.5v4a.5.5 0 0 0 .5.5h5a.5.5 0 0 0 .5-.5v-4a.5.5 0 0 0-.5-.5zM12.75 13v.75a.75.75 0 0 1-1.5 0V13H9.5a.5.5 0 0 0-.5.5v4a.5.5 0 0 0 .5.5h5a.5.5 0 0 0 .5-.5v-4a.5.5 0 0 0-.5-.5z" fill="#ffffff" opacity="1" data-original="#000000"/></g></svg>